<svg width="370" height="110" xmlns="http://www.w3.org/2000/svg" xmlns:xlink="http://www.w3.org/1999/xlink" version="1.1" xml:space="preserve">
 <g>
  <title>Layer 1</title>
  <g stroke="null" id="svg_1">
   <defs stroke="null" transform="translate(0 2.69234) translate(0 2.30766) translate(0 -1.15375) translate(0.769219 0) translate(0 -3.46149) translate(-0.38461 5.38454) translate(0 2.69227) translate(0 18.0767) translate(-0.38461 -15.769) translate(0 9.53674e-7) translate(9.68246 0) translate(-24.6825 0) translate(0 4.52708) translate(0 -257.167) translate(0 -0.21434) translate(7.33214 0) translate(11.4286 4.28571) translate(-212.857 54.2857) translate(-5.71429 -65.7143) translate(59 4) translate(9.68246 4.52706) scale(1 0.980994) translate(-9.68246 -4.52706)">
    <rect stroke="null" id="SVGID_1_" width="841.89" height="595.28"/>
   </defs>
   <clipPath stroke="null" transform="translate(0 2.69234) translate(0 2.30766) translate(0 -1.15375) translate(0.769219 0) translate(0 -3.46149) translate(-0.38461 5.38454) translate(0 2.69227) translate(0 18.0767) translate(-0.38461 -15.769) translate(0 9.53674e-7) translate(9.68246 0) translate(-24.6825 0) translate(0 4.52708) translate(0 -257.167) translate(0 -0.21434) translate(7.33214 0) translate(11.4286 4.28571) translate(-212.857 54.2857) translate(-5.71429 -65.7143) translate(59 4) translate(9.68246 4.52706) scale(1 0.980994) translate(-9.68246 -4.52706)" id="SVGID_2_">
    <use stroke="null" x="-155.81074" y="-245.22798" xlink:href="#SVGID_1_" id="svg_2"/>
   </clipPath>
   <path stroke="null" class="st0" d="m144.34926,30.28169c-1.95,6.08216 -3.99,12.12509 -5.78,18.24649c-0.49,1.68731 -1.32,2.02085 -2.85,1.89332c-1.42,-0.11772 -2.79,0.3924 -3.39,-1.79522c-1.53,-5.523 -3.44,-10.9479 -5.21,-16.41203c-0.17,-0.52974 -0.36,-1.05947 -0.89,-1.53035l0,13.94974c0,1.03004 -0.14,2.08952 0.03,3.09013c0.37,2.24648 -0.51,2.84488 -2.77,2.75659c-1.82,-0.06867 -2.39,-0.41202 -2.36,-2.29553c0.12,-7.66156 0.09,-15.32313 0.02,-22.98469c-0.02,-1.56959 0.27,-2.168 2.06,-2.14838c5.61,0.06867 5.61,-0.01962 7.28,5.27775c1.58,5.04231 3.16,10.08462 4.92,15.72534c2.06,-6.65114 4,-12.69407 5.77,-18.77623c0.5,-1.71674 1.27,-2.2661 3.11,-2.22686c5.42,0.13734 5.42,0.03924 5.42,5.43471c0,6.71 -0.09,13.41019 0.06,20.12019c0.05,2.02085 -1.01,1.92275 -2.32,1.79522c-1.19,-0.12753 -2.9,0.82404 -2.84,-1.73636c0.15,-6.11159 0.05,-12.22319 0.05,-18.33478c-0.11,-0.02943 -0.21,-0.03924 -0.31,-0.04905" clip-path="url(#SVGID_2_)" fill="#213B68" id="svg_3"/>
   <path stroke="null" class="st0" d="m262.97926,29.97758c-1.04,4.11037 -2.07,8.22073 -3.1,12.3311c-0.56,2.21705 -1.18,4.41447 -1.63,6.64133c-0.24,1.17719 -0.77,1.49111 -1.95,1.50092c-4.14,0.02943 -4.15,0.08829 -5.21,-3.93379c-1.87,-7.12202 -3.68,-14.25385 -5.61,-21.35624c-0.45,-1.64807 -0.18,-2.168 1.67,-2.09933c3.35,0.12753 3.36,0.01962 4.08,3.34519c1.24,5.72901 2.48,11.45801 3.86,17.84428c1.69,-6.71981 3.34,-12.74311 4.68,-18.8449c0.47,-2.12876 1.5,-2.37401 3.38,-2.3642c1.84,0.00981 2.97,0.17658 3.44,2.32496c1.2,5.61129 2.7,11.16371 4.08,16.73576c0.1,0.41202 0.04,0.90251 0.74,1.19681c1.27,-5.79768 2.54,-11.55611 3.8,-17.31455c0.57,-2.61925 2.74,-3.78664 5.3,-2.87431c0.78,0.27468 0.56,0.76518 0.44,1.23605c-2.16,8.33845 -4.35,16.66709 -6.5,25.00554c-0.2,0.77499 -0.54,1.02023 -1.36,1.0889c-4.52,0.35316 -4.51,0.38259 -5.6,-3.95341c-1.38,-5.49357 -2.78,-10.97733 -4.17,-16.46108c-0.11,-0.01962 -0.23,-0.03924 -0.34,-0.04905" clip-path="url(#SVGID_2_)" fill="#213B68" id="svg_4"/>
   <path stroke="null" class="st0" d="m200.11926,38.07078c4.24,3.0607 4.53,7.97548 6.68,12.34091c-1.83,0 -3.31,-0.05886 -4.79,0.01962c-0.95,0.04905 -1.31,-0.3924 -1.57,-1.17719c-0.53,-1.60883 -1.1,-3.20785 -1.7,-4.78725c-1.45,-3.88474 -2.75,-4.74801 -7.02,-4.74801c-3.57,0 -3.57,0 -3.57,3.39424c0,1.91294 -0.08,3.83569 0.03,5.74863c0.07,1.26548 -0.35,1.58921 -1.62,1.58921c-3.84,0.00981 -3.84,0.06867 -3.84,-3.61987c0,-7.28879 0.04,-14.58738 -0.04,-21.87617c-0.01,-1.45187 0.39,-1.92275 1.88,-1.8737c4.13,0.12753 8.26,0.08829 12.39,0.1962c4.72,0.12753 7.4,1.95218 8.2,5.45433c1,4.28694 -0.48,7.12202 -5.03,9.33907m-7.46,-2.80564c1.13,0 2.26,0.07848 3.38,-0.01962c2.6,-0.21582 3.85,-1.5794 3.82,-4.00246c-0.03,-2.25629 -1.33,-3.61987 -3.79,-3.80626c-1.49,-0.11772 -3,-0.02943 -4.51,-0.02943c-3.41,0 -3.41,0 -3.41,3.39424c0,4.48314 0,4.48314 4.51,4.46352" clip-path="url(#SVGID_2_)" fill="#213B68" id="svg_5"/>
   <path stroke="null" class="st1" d="m108.10926,64.20447l0,12.53711c0,3.31576 -0.09,6.63152 0.04,9.94728c0.06,1.53035 -0.54,1.84427 -1.94,1.85408c-1.49,0.01962 -2.1,-0.2943 -2.09,-1.94237c0.08,-8.77009 0.02,-17.54018 0.08,-26.31027c0.01,-0.86327 -0.75,-2.40344 0.84,-2.50154c1.48,-0.0981 3.28,-0.88289 4.45,1.03004c4.53,7.37708 9.7,14.38138 13.73,22.05275c0.12,0.23544 0.3,0.44145 0.59,0.86327l0,-9.3783c0,-4.19866 0.08,-8.40712 -0.04,-12.60578c-0.05,-1.62845 0.38,-2.12876 2.11,-2.14838c1.86,-0.01962 2.03,0.76518 2.02,2.25629c-0.06,8.77009 -0.01,17.54018 -0.06,26.31027c0,0.76518 0.59,2.10914 -0.7,2.20724c-1.42,0.10791 -3.11,0.88289 -4.24,-0.95156c-4.52,-7.30841 -9.45,-14.36176 -13.64,-21.85655c-0.27,-0.46107 -0.38,-1.09871 -1.15,-1.36358" clip-path="url(#SVGID_2_)" fill="#32AFE3" id="svg_6"/>
   <path stroke="null" class="st0" d="m104.53926,50.88257c-2.91,0.02943 -5.7,-0.40221 -8.18,-2.02085c-2.29,-1.4813 -3.33,-3.69835 -3.76,-6.26855c-0.14,-0.81423 0,-1.26548 0.98,-1.21643c1.05,0.04905 2.11,0.04905 3.16,0c0.75,-0.03924 0.92,0.2943 1.17,0.94175c1.58,4.02208 7.53,5.6211 11.17,3.08032c2.01,-1.40282 1.93,-3.83569 -0.23,-5.05212c-1.92,-1.07909 -4.13,-1.30472 -6.21,-1.92275c-1.43,-0.42183 -2.89,-0.7848 -4.3,-1.2851c-2.96,-1.04966 -4.71,-3.04108 -4.79,-6.25874c-0.08,-3.22747 1.38,-5.53281 4.33,-6.85715c4.35,-1.95218 8.75,-1.85408 13.04,0.18639c2.39,1.12814 3.74,3.11956 4.18,5.67996c0.06,0.35316 0.19,0.7848 0.05,1.05947c-0.39,0.70632 -4.88,0.26487 -5.26,-0.48069c-1.69,-3.23728 -6.15,-4.47333 -9.37,-2.58982c-1.04,0.60822 -1.68,1.4813 -1.62,2.70754c0.07,1.187 0.87,1.82465 1.9,2.24648c2.59,1.04966 5.37,1.34396 8.04,2.07971c5.44,1.50092 7.68,4.36542 6.99,8.92705c-0.54,3.57082 -4.06,6.4157 -8.6,6.91601c-0.88,0.08829 -1.78,0.08829 -2.69,0.12753" clip-path="url(#SVGID_2_)" fill="#213B68" id="svg_7"/>
   <path stroke="null" class="st0" d="m348.99926,50.85314c-2.63,0.03924 -4.99,-0.26487 -7.19,-1.3832c-1.87,-0.94175 -3.29,-2.31515 -4.07,-4.2379c-0.47,-1.14776 -1.36,-2.72716 -0.53,-3.50215c1.02,-0.95156 2.85,-0.28449 4.32,-0.2943c0.79,-0.00981 0.7,0.82404 0.91,1.33415c1.58,3.78664 8.64,5.14041 11.56,2.21705c1.56,-1.56959 1.19,-3.6493 -0.9,-4.7382c-1.88,-0.97118 -4,-1.20662 -6.01,-1.80503c-1.65,-0.4905 -3.33,-0.90251 -4.91,-1.54016c-2.57,-1.03004 -4.06,-2.91355 -4.24,-5.7192c-0.19,-2.91355 0.96,-5.14041 3.45,-6.71981c3.82,-2.42306 10.84,-2.3642 14.6,0.11772c1.01,0.66708 1.9,1.47149 2.48,2.52116c0.68,1.21643 1.81,2.85469 0.86,3.82588c-0.91,0.92213 -2.85,0.26487 -4.34,0.25506c-0.68,-0.00981 -0.65,-0.66708 -0.85,-1.12814c-1.42,-3.17842 -7.63,-4.10056 -10.07,-1.51073c-1.36,1.44206 -1,3.21766 0.89,4.1398c1.9,0.93194 4.02,1.15757 6.04,1.69712c1.52,0.40221 3.04,0.81423 4.51,1.33415c2.77,0.9908 4.53,2.85469 4.77,5.82711c0.27,3.19804 -0.88,5.76825 -3.72,7.50461c-2.38,1.46168 -5,1.92275 -7.56,1.80503" clip-path="url(#SVGID_2_)" fill="#213B68" id="svg_8"/>
   <path stroke="null" class="st1" d="m141.86926,63.86112c0,7.48499 0,14.89149 0,22.30781c0,2.13857 -1.14,2.88412 -3.26,2.25629c-0.85,-0.24525 -0.71,-0.83385 -0.71,-1.3832c-0.01,-9.28021 -0.01,-18.56041 0,-27.84062c0,-0.53955 -0.17,-1.40282 0.7,-1.34396c1.48,0.10791 3.22,-0.83385 4.37,0.79461c1.1,1.5794 2.12,3.20785 3.15,4.8363c3.86,6.09197 8.05,11.98775 11.53,18.37402c-0.41,-7.30841 -0.17,-14.55795 -0.21,-21.8075c-0.01,-1.12814 -0.37,-2.33477 1.65,-2.33477c1.81,0 2.43,0.36297 2.4,2.28572c-0.11,8.69161 -0.03,17.38322 -0.08,26.07483c-0.01,0.79461 0.73,2.21705 -0.81,2.29553c-1.42,0.06867 -3.07,0.75537 -4.19,-1.10852c-4.67,-7.72042 -9.95,-15.06807 -14.22,-23.03374c-0.08,-0.13734 -0.2,-0.23544 -0.32,-0.37278" clip-path="url(#SVGID_2_)" fill="#32AFE3" id="svg_9"/>
   <path stroke="null" class="st1" d="m340.25926,63.41967c0,7.93624 -0.06,15.35256 0.05,22.74926c0.03,1.85408 -0.5,2.48192 -2.38,2.30534c-1.04,-0.0981 -1.44,-0.36297 -1.44,-1.42244c0.03,-9.28021 0.01,-18.56041 0.02,-27.84062c0,-0.64746 -0.11,-1.51073 0.91,-1.39301c1.46,0.16677 3.16,-0.7848 4.29,1.00061c3.95,6.25874 7.97,12.47825 11.92,18.73699c0.89,1.41263 1.64,2.91355 2.63,4.33599c-0.42,-6.53342 -0.17,-13.03741 -0.22,-19.5414c-0.01,-0.65727 0,-1.32434 0,-1.99142c0,-2.71735 0.09,-2.74678 2.7,-2.59963c0.94,0.04905 1.33,0.30411 1.32,1.27529c-0.03,9.35868 -0.01,18.70756 -0.02,28.06624c0,0.55917 0.15,1.37339 -0.76,1.29491c-1.45,-0.13734 -3.11,0.76518 -4.23,-1.06928c-4.6,-7.50461 -9.69,-14.71491 -13.93,-22.44515c-0.17,-0.33354 -0.37,-0.63765 -0.86,-1.46168" clip-path="url(#SVGID_2_)" fill="#32AFE3" id="svg_11"/>
   <path stroke="null" class="st1" d="m183.62926,88.87647c-6.03,-0.01962 -10.67,-3.1588 -12.77,-8.6818c-1.72,-4.51257 -1.7,-9.06439 -0.08,-13.59658c2.33,-6.5138 7.78,-9.66279 13.96,-9.41754c6.89,0.27468 11.61,4.41447 13.12,10.97733c0.79,3.43348 0.69,6.85715 -0.25,10.25139c-1.88,6.73943 -6.88,10.48683 -13.98,10.46721m10.32,-15.69591c-0.06,-2.91355 -0.61,-5.6211 -2.12,-8.08339c-3.75,-6.11159 -12.1,-6.17045 -15.65,0.03924c-2.99,5.24832 -3.03,10.74189 0.06,15.9804c3.52,5.98406 11.65,6.01349 15.43,0.18639c1.63,-2.50154 2.18,-5.28756 2.28,-8.12263" clip-path="url(#SVGID_2_)" fill="#32AFE3" id="svg_12"/>
   <path stroke="null" class="st1" d="m327.98926,72.96475c0.12,5.77806 -1.53,10.85961 -6.84,13.99879c-9.3,5.51319 -20.62,-0.38259 -21.55,-11.13428c-0.32,-3.71797 -0.05,-7.36727 1.64,-10.79094c2.96,-5.96444 9.06,-8.85838 15.96,-7.58309c5.67,1.04966 10.22,6.25874 10.78,12.40958c0.09,1.03004 0.01,2.0699 0.01,3.09994m-23.98,0.17658c-0.11,3.14899 0.61,6.24893 2.72,8.93686c3.7,4.72839 10.71,4.68915 14.31,-0.07848c3.55,-4.69896 3.61,-12.96874 0.14,-17.68733c-3.75,-5.09136 -11.04,-5.06193 -14.71,0.07848c-1.83,2.5702 -2.51,5.47395 -2.46,8.75047" clip-path="url(#SVGID_2_)" fill="#32AFE3" id="svg_13"/>
   <path stroke="null" class="st0" d="m295.11926,23.26758c2.46,-0.88289 3.2,0.52974 3.89,2.37401c2.85,7.65175 5.76,15.27408 8.75,22.87679c0.64,1.62845 0.34,1.9718 -1.38,1.93256c-3.66,-0.06867 -3.66,0.00981 -4.84,-3.22747c-1.36,-3.72778 -1.36,-3.75721 -5.35,-3.71797c-2.02,0.01962 -4.39,-0.71613 -5.95,0.31392c-1.47,0.97118 -1.55,3.37462 -2.12,5.17965c-0.35,1.09871 -0.9,1.44206 -2.07,1.44206c-4,0.01962 -4,0.06867 -2.68,-3.52177c2.56,-6.97487 5.17,-13.93012 7.64,-20.93442c0.73,-2.08952 1.48,-3.75721 4.11,-2.71735m0.16,5.50338c-0.16,-0.00981 -0.32,-0.02943 -0.48,-0.03924c-1.05,3.10975 -2.08,6.22931 -3.17,9.32926c-0.34,0.97118 0.06,1.14776 0.92,1.12814c1.65,-0.02943 3.31,-0.04905 4.96,0c1.05,0.02943 1.34,-0.30411 0.98,-1.2851c-1.09,-3.03127 -2.14,-6.08216 -3.21,-9.13306" clip-path="url(#SVGID_2_)" fill="#213B68" id="svg_14"/>
   <path stroke="null" class="st0" d="m179.27926,50.11739c-0.36,0.17658 -0.42,0.23544 -0.49,0.24525c-4.99,0.34335 -5.1,0.37278 -6.64,-4.29675c-0.66,-1.98161 -1.61,-2.99203 -3.79,-2.5702c-0.14,0.02943 -0.3,0.01962 -0.45,0c-4.83,-0.76518 -8.48,0.20601 -9.03,5.8173c-0.13,1.29491 -1.13,1.09871 -2.02,1.10852c-3.84,0.05886 -3.85,0.05886 -2.59,-3.36481c2.69,-7.32803 5.42,-14.63643 8.04,-21.98408c0.52,-1.46168 1.18,-2.0699 2.85,-2.01104c3.79,0.12753 3.79,0.02943 5.13,3.53158c3,7.81852 5.99,15.64686 8.99,23.52424m-13.05,-21.43472c-0.16,0 -0.32,-0.00981 -0.48,-0.00981c-1.14,3.43348 -2.28,6.87677 -3.49,10.51626c2.04,0 3.83,-0.06867 5.6,0.01962c1.51,0.07848 2.02,-0.1962 1.39,-1.80503c-1.12,-2.8645 -2.02,-5.80749 -3.02,-8.72104" clip-path="url(#SVGID_2_)" fill="#213B68" id="svg_15"/>
   <path stroke="null" class="st1" d="m243.43926,78.91938c-5.49,0 -5.49,0 -7.05,5.11098c-0.28,0.91232 -0.59,1.82465 -0.89,2.73697c-0.27,0.82404 -0.39,1.61864 -1.67,1.69712c-3.24,0.20601 -3.38,0.10791 -2.33,-2.90374c3.01,-8.63275 6.07,-17.24588 8.97,-25.91787c0.54,-1.62845 1.39,-2.00123 2.92,-1.89332c1.52,0.10791 2.89,-0.27468 3.61,1.90313c2.91,8.89762 6.11,17.69714 9.13,26.56532c0.21,0.61803 1.4,1.8737 -0.07,2.0699c-1.29,0.17658 -3.25,1.16738 -4.03,-1.04966c-0.72,-2.01104 -1.52,-4.01227 -2.06,-6.07235c-0.45,-1.70693 -1.23,-2.53097 -3.12,-2.27591c-1.14,0.15696 -2.28,0.02943 -3.41,0.02943m4.72,-3.32557c-1.53,-4.542 -2.98,-8.85838 -4.56,-13.55734c-1.49,4.43409 -2.81,8.45617 -4.21,12.44882c-0.35,1.01042 0.08,1.11833 0.9,1.11833c2.55,-0.01962 5.09,-0.00981 7.87,-0.00981" clip-path="url(#SVGID_2_)" fill="#32AFE3" id="svg_17"/>
   <path stroke="null" class="st1" d="m215.84926,83.59872c1.64,-4.81668 3.16,-9.33907 4.71,-13.84183c1.17,-3.41386 2.36,-6.82772 3.56,-10.23177c0.52,-1.47149 3.25,-2.49173 4.53,-1.66769c0.87,0.55917 0.08,1.22624 -0.1,1.72655c-2.59,7.22012 -5.24,14.41081 -7.87,21.6113c-0.56,1.52054 -1.1,3.05089 -1.65,4.57143c-0.98,2.69773 -1.93,3.17842 -4.8,2.68792c-0.89,-0.15696 -1.04,-0.73575 -1.24,-1.34396c-3.1,-9.29983 -6.17,-18.59965 -9.29,-27.88967c-0.36,-1.06928 -0.2,-1.37339 0.99,-1.4813c2.11,-0.18639 3.32,0.23544 3.99,2.58001c2.2,7.69099 4.99,15.21522 7.17,23.27899" clip-path="url(#SVGID_2_)" fill="#32AFE3" id="svg_18"/>
   <path stroke="null" class="st0" d="m308.98926,23.10081c1.97,0 3.53,0.04905 5.08,-0.01962c1.07,-0.04905 1.37,0.67689 1.79,1.3832c1.95,3.30595 3.92,6.59228 6.08,10.21215c1.76,-2.95279 3.62,-5.58186 4.97,-8.44636c1.22,-2.59963 2.93,-3.6493 5.75,-3.14899c0.57,0.0981 1.18,0.01962 1.77,0.01962c0.26,0.86327 -0.35,1.31453 -0.67,1.83446c-1.2,1.95218 -2.3,3.98284 -3.71,5.77806c-4.2,5.31699 -6.54,11.11466 -5.39,17.94238c0.26,1.54997 -0.51,1.94237 -1.9,1.75598c-0.22,-0.02943 -0.45,-0.03924 -0.67,0c-2.26,0.38259 -3.27,-0.38259 -2.92,-2.7664c0.87,-5.89578 -0.79,-11.0558 -4.55,-15.75477c-2.08,-2.58001 -3.61,-5.57205 -5.63,-8.78971" clip-path="url(#SVGID_2_)" fill="#213B68" id="svg_19"/>
   <path stroke="null" class="st0" d="m217.46926,39.04197c0,-3.23728 -0.06,-6.47456 0.03,-9.71184c0.03,-1.26548 -0.37,-1.65788 -1.64,-1.58921c-1.8,0.0981 -3.6,-0.01962 -5.4,0.03924c-0.97,0.03924 -1.24,-0.27468 -1.3,-1.23605c-0.19,-3.46291 -0.23,-3.4531 3.34,-3.4531c5.55,0 11.12,0.14715 16.66,-0.06867c2.34,-0.08829 2.23,0.97118 2.29,2.58982c0.06,1.64807 -0.31,2.51135 -2.16,2.15819c-0.14,-0.02943 -0.3,-0.00981 -0.45,0c-1.93,0.0981 -4.5,-0.79461 -5.62,0.37278c-0.95,1.00061 -0.3,3.49234 -0.31,5.3268c-0.02,5.00307 -0.07,10.00614 0.03,15.00921c0.03,1.49111 -0.28,2.21705 -1.93,1.94237c-0.44,-0.07848 -0.91,-0.06867 -1.35,0c-1.71,0.25506 -2.34,-0.31392 -2.25,-2.10914c0.18,-3.08032 0.06,-6.18026 0.06,-9.2704" clip-path="url(#SVGID_2_)" fill="#213B68" id="svg_20"/>
   <path stroke="null" class="st1" d="m266.76926,74.64225c0,-3.75721 -0.1,-7.50461 0.04,-11.26181c0.07,-1.80503 -0.59,-2.30534 -2.31,-2.18762c-1.79,0.12753 -3.61,-0.03924 -5.4,0.04905c-1.34,0.06867 -1.89,-0.31392 -1.84,-1.71674c0.04,-1.21643 0.19,-1.88351 1.7,-1.8737c6.68,0.06867 13.37,0.05886 20.05,0c1.29,-0.00981 1.72,0.38259 1.64,1.62845c-0.07,1.07909 0.1,2.06009 -1.56,1.96199c-1.79,-0.11772 -3.61,0.08829 -5.4,-0.05886c-1.98,-0.16677 -2.7,0.37278 -2.66,2.49173c0.14,7.57328 0.07,15.15636 0.04,22.73945c0,0.66708 0.44,1.71674 -0.5,1.93256c-1.06,0.24525 -2.27,0.22563 -3.33,-0.01962c-0.76,-0.17658 -0.43,-1.14776 -0.44,-1.7756c-0.05,-3.96322 -0.03,-7.93624 -0.03,-11.90927" clip-path="url(#SVGID_2_)" fill="#32AFE3" id="svg_21"/>
   <path stroke="null" class="st1" d="m287.07926,73.12171c0,-4.56162 0.08,-9.11344 -0.04,-13.67506c-0.05,-1.84427 0.95,-1.76579 2.24,-1.7756c1.3,-0.00981 2.06,0.11772 2.04,1.74617c-0.08,9.11344 -0.09,18.22687 0,27.34031c0.02,1.83446 -0.95,1.76579 -2.24,1.7756c-1.29,0.00981 -2.08,-0.10791 -2.04,-1.74617c0.11,-4.55181 0.04,-9.11344 0.04,-13.66525" clip-path="url(#SVGID_2_)" fill="#32AFE3" id="svg_27"/>
   <path stroke="null" class="st1" d="m90.03926,72.89608c0,-4.48314 0.08,-8.96629 -0.04,-13.44943c-0.05,-1.68731 0.82,-1.70693 2.06,-1.68731c1.2,0.01962 2.11,-0.05886 2.1,1.66769c-0.09,9.11344 -0.09,18.22687 0,27.3305c0.02,1.70693 -0.85,1.69712 -2.08,1.68731c-1.21,0 -2.13,0.04905 -2.08,-1.66769c0.12,-4.62048 0.04,-9.25078 0.04,-13.88107" clip-path="url(#SVGID_2_)" fill="#32AFE3" id="svg_29"/>
   <path stroke="null" class="st1" d="m34.70951,30.02607c1.41,0.18639 2.82,0.41202 4.24,0.52974c1,0.07848 1.35,0.4905 1.54,1.47149c0.57,3.02146 0.6,3.17842 -2.43,2.4623c-12.37,-2.91355 -23.52,10.39854 -18.8,21.47396c0.61,1.44206 0.07,2.168 -0.94,2.97241c-3.33,2.64868 -5.03,6.03311 -4.28,10.27101c1.45,8.25016 8.86,11.92889 16.58,8.31883c0.71,-0.33354 1.38,-1.11833 2.26,-0.61803c0.84,0.47088 1.82,1.03985 2.03,1.96199c0.21,0.93194 -0.93,1.21643 -1.56,1.64807c-5.61,3.85531 -14.31,2.92336 -19.24,-2.02085c-5.42,-5.43471 -5.95,-13.7143 -1.11,-19.99266c1.27,-1.63826 1.74,-3.04108 1.36,-5.17965c-2.1,-11.83079 8.08,-23.31823 20.35,-23.29861" clip-path="url(#SVGID_2_)" fill="#32AFE3" id="svg_10"/>
   <path stroke="null" class="st1" d="m43.25951,33.76366c-0.79,-5.16984 1.53,-7.64195 7.41,-7.95586c5.74,-0.31392 10.53,1.4813 13.51,6.6119c2.97,5.10117 2.53,10.11405 -0.62,15.01902c-0.4,0.62784 -1.41,1.13795 -0.86,2.07971c0.6,1.01042 1.68,0.70632 2.65,0.71613c2.33,0.01962 4.31,-0.33354 5.85,-2.49173c1.39,-1.95218 4.27,-1.96199 6.3,-0.51993c1.87,1.32434 2.54,3.86512 1.55,5.92521c-1.12,2.33477 -3.54,3.79645 -5.66,2.61925c-3.43,-1.91294 -6.93,-1.3832 -10.48,-1.2851c-0.95,0.02943 -1.68,-0.20601 -2.4,-0.88289c-1.96,-1.82465 -3.96,-3.61987 -6.05,-5.27775c-1.13,-0.8927 -1.08,-1.5794 -0.17,-2.50154c0.87,-0.88289 1.5,-2.11895 3.09,-0.8927c2.04,1.5794 2.65,1.36358 3.8,-1.02023c1.93,-3.99265 0.81,-9.33907 -2.49,-11.88965c-3.84,-2.97241 -9.22,-3.01165 -13.17,-0.06867c-0.72,0.50031 -1.38,1.0889 -2.26,1.81484m31.32,15.80382c-1.05,0.07848 -1.65,0.64746 -1.75,1.62845c-0.1,1.04966 0.5,1.66769 1.54,1.69712c0.99,0.02943 1.74,-0.45126 1.76,-1.52054c0.04,-1.02023 -0.59,-1.56959 -1.55,-1.80503" clip-path="url(#SVGID_2_)" fill="#32AFE3" id="svg_16"/>
   <path stroke="null" class="st1" d="m54.82951,94.70302c-2.6,0.03924 -4.86,-1.5794 -4.83,-3.90436c0.03,-1.98161 -0.84,-3.23728 -2.31,-4.21828c-1.92,-1.29491 -2.58,-3.03127 -2.65,-5.26794c-0.3,-9.0742 0.83,-6.43532 -6.13,-12.58616c-0.39,-0.34335 -0.81,-0.65727 -1.2,-1.00061c-0.54,-0.47088 -1.57,-0.8927 -1.21,-1.64807c0.46,-0.95156 1.24,-1.92275 2.14,-2.47211c0.82,-0.4905 1.36,0.65727 1.94,1.13795c0.8,0.65727 1.44,1.37339 2.37,0.15696c0.39,-0.51993 0.8,-1.4813 1.72,-0.59841c0.77,0.73575 2.2,1.42244 1.42,2.65849c-1.07,1.70693 -0.09,2.91355 0.98,3.54139c1.91,1.12814 2.01,2.74678 2.09,4.51257c0.07,1.54016 0.09,3.09013 0.16,4.63029c0.17,3.98284 1.6,5.36604 5.66,5.523c2.96,0.10791 4.73,1.90313 4.72,4.77744c0,2.61925 -2.15,4.71858 -4.87,4.75782m1.7,-4.77744c-0.18,-0.92213 -0.71,-1.6775 -1.69,-1.73636c-0.97,-0.04905 -1.75,0.56898 -1.79,1.5794c-0.04,0.98099 0.63,1.72655 1.61,1.79522c1.01,0.06867 1.55,-0.71613 1.87,-1.63826" clip-path="url(#SVGID_2_)" fill="#32AFE3" id="svg_22"/>
   <path stroke="null" class="st1" d="m59.90951,57.71954c2.4,-0.18639 4.42,-0.35316 6.44,-0.48069c1.8,-0.11772 3.59,-0.26487 5,1.26548c0.59,0.62784 1.53,0.46107 2.36,0.48069c2.76,0.04905 4.93,2.13857 4.95,4.68915c0.02,2.4623 -2.08,4.70877 -4.58,4.92459c-2.99,0.25506 -4.81,-1.16738 -5.27,-4.12018c-0.49,-3.13918 -0.67,-3.73759 -3.79,-2.84488c-7.81,2.21705 -12.07,-2.84488 -16.84,-7.07297c-1.44,-1.27529 0.3,-1.86389 0.78,-2.6683c0.52,-0.8927 1.25,-1.23605 2.13,-0.28449c1.13,1.21643 2.19,2.22686 3.67,0.20601c0.69,-0.94175 1.62,-0.02943 2.33,0.48069c0.64,0.46107 1.07,0.9908 0.68,1.8737c-1.33,2.98222 -0.86,3.62968 2.14,3.5512m13.73,7.85776c0.86,-0.32373 1.61,-0.76518 1.58,-1.84427c-0.03,-1.05947 -0.69,-1.70693 -1.68,-1.66769c-0.96,0.04905 -1.66,0.73575 -1.65,1.75598c0,1.04966 0.77,1.50092 1.75,1.75598" clip-path="url(#SVGID_2_)" fill="#32AFE3" id="svg_23"/>
   <path stroke="null" class="st1" d="m63.16951,71.02182c2.97,-0.01962 5.43,2.04047 5.54,4.542c0.11,2.31515 -2.26,4.96383 -4.66,5.20908c-2.51,0.25506 -5.11,-1.85408 -5.3,-4.61067c-0.1,-1.43225 -0.78,-2.29553 -1.76,-3.13918c-4.47,-3.80626 -8.94,-7.61252 -13.4,-11.42858c-0.65,-0.55917 -1.78,-1.05947 -1.26,-2.0699c0.49,-0.94175 1.3,-1.83446 2.18,-2.44268c0.57,-0.3924 1.08,0.53955 1.57,0.91232c0.89,0.66708 1.57,1.56959 2.83,0.41202c0.96,-0.88289 1.56,0.17658 2.21,0.73575c0.65,0.55917 1.27,1.03985 0.4,1.95218c-0.69,0.71613 -0.56,1.59902 0.26,2.08952c3.1,1.86389 5.48,4.542 8.26,6.75905c0.99,0.7848 1.93,1.40282 3.13,1.07909" clip-path="url(#SVGID_2_)" fill="#32AFE3" id="svg_24"/>
   <path stroke="null" class="st1" d="m40.00951,94.02614c-2.15,-0.04905 -3.79,-0.95156 -4.63,-3.09013c-0.74,-1.86389 -0.26,-3.44329 1.01,-4.87554c2.13,-2.38382 2.05,-6.10178 -0.29,-8.26978c-1.47,-1.37339 -3.04,-2.63887 -4.59,-3.92398c-0.8,-0.65727 -1.22,-1.29491 -0.29,-2.168c0.86,-0.80442 1.39,-2.39363 3.04,-1.27529c1.19,0.80442 2.13,1.98161 3.74,0.35316c0.62,-0.62784 1.47,0.65727 2.16,1.13795c0.65,0.46107 0.75,1.03985 0.23,1.70693c-0.39,0.4905 -1.12,1.05947 -0.27,1.64807c2.21,1.50092 1.6,3.81607 1.78,5.84673c0.17,1.86389 0.24,3.50215 2.02,4.8363c1.95,1.46168 1.16,3.57082 0.46,5.48376c-0.72,2.00123 -2.39,2.4623 -4.37,2.58982" clip-path="url(#SVGID_2_)" fill="#32AFE3" id="svg_25"/>
   <path stroke="null" class="st1" d="m41.80951,19.96107c-4.14,-1.05947 -9.08,-0.74556 -14.07,0.32373c-5.04,1.0889 -9.4,3.33538 -13.38,6.44513c-0.53,0.41202 -1.03,0.86327 -1.6,1.20662c-0.92,0.54936 -1.74,0.23544 -2.41,-0.4905c-0.62,-0.66708 -0.73,-1.36358 -0.24,-2.20724c0.86,-1.4813 2.34,-2.25629 3.65,-3.20785c8.86,-6.44513 18.79,-7.88719 29.42,-5.9154c0.92,0.16677 1.96,0.2943 2.18,1.54997c0.31,1.74617 -0.42,2.40344 -3.55,2.29553" clip-path="url(#SVGID_2_)" fill="#32AFE3" id="svg_26"/>
   <path stroke="null" class="st1" d="m40.24951,27.10271c-2.9,-0.56898 -6.3,-0.72594 -9.77,-0.0981c-3.79,0.6867 -7.09,2.33477 -10.19,4.46352c-0.62,0.42183 -1.2,0.90251 -1.82,1.30472c-1.12,0.71613 -2.35,1.36358 -3.34,-0.03924c-0.88,-1.24586 -0.35,-2.53097 0.77,-3.29614c3.88,-2.63887 7.76,-5.30718 12.59,-6.15083c4.25,-0.74556 8.47,-1.06928 12.72,-0.10791c1.33,0.30411 2.54,0.73575 2.32,2.40344c-0.21,1.62845 -1.52,1.54016 -3.28,1.52054" clip-path="url(#SVGID_2_)" fill="#32AFE3" id="svg_28"/>
  </g>
 </g>
</svg>